<svg width="32" height="32" viewBox="0 0 32 32" fill="none" xmlns="http://www.w3.org/2000/svg">
<path d="M29 2V4H5L5.00061 17.2412C5.01958 18.0014 5.54884 26.3605 16 28.9C20.5 27.7 23.8 25.4 25.6 22C27 19.5 27 17.2 27 17.2V8H29V17.2C29 17.2 28.9 28 16 31C3.4949 28.0918 3.01812 17.8539 3.00065 17.2298L3 2H29Z" fill="#7C878E"/>
<path d="M13 9V7H9V11L11 11V9H13Z" fill="#7C878E"/>
<path d="M19 9H21V11H23V7H19V9Z" fill="#7C878E"/>
<path d="M9 17H11V19H13V21H9V17Z" fill="#7C878E"/>
<path d="M19 19V21H23V17H21V19H19Z" fill="#7C878E"/>
<path fill-rule="evenodd" clip-rule="evenodd" d="M12.7654 11.5924C12.4746 11.8368 12.3339 12.22 12.2412 12.7267L11.8778 14.6935C11.8023 15.0907 11.7798 15.326 11.7798 15.5327C11.7798 15.9358 11.8954 16.2601 12.193 16.4673C12.4697 16.66 12.8638 16.7203 13.3395 16.7203H14.1204C14.6248 16.7203 15.0212 16.6535 15.3101 16.4071C15.5975 16.162 15.7324 15.7778 15.8247 15.2736L16.1882 13.2999L16.1885 13.2981C16.2551 12.9189 16.2928 12.6787 16.2928 12.4678C16.2928 12.0621 16.1775 11.7369 15.878 11.5302C15.6003 11.3386 15.2043 11.2803 14.7264 11.2803H13.9521C13.4536 11.2803 13.057 11.3474 12.7654 11.5924ZM13.2394 14.5079C13.2058 14.6895 13.1726 14.8735 13.1479 15.0325C13.1225 15.1961 13.1084 15.3183 13.1084 15.3834C13.1084 15.4504 13.1198 15.4794 13.1259 15.4903C13.1297 15.497 13.1369 15.5077 13.1663 15.5208C13.2459 15.5562 13.3976 15.5725 13.6896 15.5725H14.0329C14.2806 15.5725 14.3576 15.5253 14.4027 15.4706C14.4684 15.391 14.518 15.2383 14.577 14.9036L14.8264 13.4864C14.9027 13.0718 14.9574 12.7604 14.9574 12.6172C14.9574 12.5493 14.9462 12.5198 14.94 12.5086C14.9364 12.502 14.9299 12.4919 14.9019 12.4793C14.8689 12.4644 14.8138 12.45 14.7231 12.4406C14.6337 12.4313 14.5224 12.4281 14.383 12.4281H14.0329C13.7854 12.4281 13.7132 12.4752 13.6707 12.528C13.6421 12.5634 13.6124 12.6202 13.5822 12.7172C13.552 12.8141 13.5253 12.9375 13.4953 13.0986L13.2394 14.5079Z" fill="#7C878E"/>
<path d="M19.1105 11.3192H20.2635L19.2879 16.6748H18.0061L18.6995 12.8522C18.4626 12.9862 18.1924 13.1271 17.8864 13.2863L17.6973 13.3848L17.1257 12.3655L19.1105 11.3192Z" fill="#7C878E"/>
</svg>
